#!OML:ASF I:\golf\golf\golf 2\Subject 1\2002-09-07\Subject1.ASF
:FULLY-SPECIFIED
:DEGREES
248
root -6.47643 18.0399 -1.05351 -175.05 57.8156 -184.935
lowerback -5.91645 -5.24483 3.90081
upperback 4.53836 -7.48436 11.4548
thorax 9.35867 -3.55825 9.30299
lowerneck -10.2718 -6.86782 1.17529
upperneck 30.3861 -3.74074 -16.073
head 11.1199 -2.84903 -6.53067
rclavicle 4.29375e-014 -1.36764e-013
rhumerus -7.04502 6.78018 -92.9147
rradius 42.713
rwrist -66.6213
rhand -49.7771 -5.6877
rfingers 7.12502
rthumb -22.3752 -34.4119
lclavicle 4.29375e-014 -1.36764e-013
lhumerus 14.6283 -59.9239 92.9925
lradius 18.6324
lwrist 2.55818
lhand 1.55609 48.5924
lfingers 7.12502
lthumb -152.92 256.67
rfemur -16.15 -7.76198 6.32513
rtibia 38.2206
rfoot -11.0639 -24.5212
rtoes 4.64685
lfemur -20.7725 -0.00935509 -18.9018
ltibia 14.6241
lfoot -5.0132 -24.3239
ltoes -6.29604
249
root -6.44167 18.0488 -1.08986 -176.12 57.5785 -185.181
lowerback -5.8285 -4.4534 3.70466
upperback 4.40494 -6.35275 11.6587
thorax 9.0407 -3.00949 9.83078
lowerneck -9.13619 -7.92513 0.794121
upperneck 30.4945 -5.19695 -15.8149
head 10.7873 -3.4581 -6.43444
rclavicle -3.33958e-014 -1.94014e-013
rhumerus -6.64961 8.47626 -94.1758
rradius 38.5916
rwrist -66.6407
rhand -46.1443 -8.63338
rfingers 7.12502
rthumb -18.8845 -37.7367
lclavicle -3.33958e-014 -1.94014e-013
lhumerus 12.2856 -61.2205 92.8021
lradius 19.522
lwrist 6.7475
lhand 2.91367 52.6726
lfingers 7.12502
lthumb -151.622 260.542
rfemur -15.1286 -6.66012 5.77397
rtibia 38.5779
rfoot -11.2115 -24.4207
rtoes 8.04018
lfemur -18.9955 0.737855 -19.3916
ltibia 13.4367
lfoot -5.24591 -24.8807
ltoes -7.65533
250
root -6.40825 18.0559 -1.14671 -177.107 55.6787 -185.573
lowerback -5.9782 -4.10936 3.63729
upperback 3.93335 -5.81667 11.9571
thorax 8.56728 -2.73328 10.2807
lowerneck -8.17401 -9.09656 0.244963
upperneck 30.8126 -6.74681 -15.5198
head 10.5914 -4.12677 -6.31999
rclavicle 6.52014e-014 3.81667e-014
rhumerus -6.26552 9.7238 -95.2328
rradius 34.7357
rwrist -66.1706
rhand -42.6121 -11.0135
rfingers 7.12502
rthumb -15.4848 -40.4134
lclavicle 6.52014e-014 3.81667e-014
lhumerus 9.87792 -62.693 93.032
lradius 20.5382
lwrist 10.9703
lhand 4.89549 56.2239
lfingers 7.12502
lthumb -149.73 263.762
rfemur -13.6511 -6.90118 5.15036
rtibia 38.7968
rfoot -11.4202 -24.4419
rtoes 10.69
lfemur -17.8004 0.378127 -20.042
ltibia 12.5409
lfoot -4.83577 -26.1238
ltoes -7.51342
251
root -6.36911 18.0695 -1.19752 -177.831 54.2806 -185.702
lowerback -6.01292 -3.3459 3.65954
upperback 3.47098 -4.69544 12.2547
thorax 7.92282 -2.15189 10.7622
lowerneck -7.22377 -10.4912 -0.485983
upperneck 31.2403 -8.63877 -14.9599
head 10.4578 -4.94036 -6.10774
rclavicle 2.38542e-014 -8.5875e-014
rhumerus -5.68331 9.45146 -96.1408
rradius 31.0535
rwrist -64.8311
rhand -37.9609 -13.4981
rfingers 7.12502
rthumb -11.0016 -43.1899
lclavicle 2.38542e-014 -8.5875e-014
lhumerus 7.40814 -64.024 94.0075
lradius 21.353
lwrist 14.9669
lhand 7.20885 60.0026
lfingers 7.12502
lthumb -147.526 267.112
rfemur -12.3631 -6.74649 4.71371
rtibia 38.9396
rfoot -10.9805 -24.4638
rtoes 11.4579
lfemur -16.7563 0.228243 -20.4867
ltibia 11.8162
lfoot -4.20034 -27.1316
ltoes -7.19549
252
root -6.32955 18.0777 -1.24646 -178.292 52.983 -185.591
lowerback -6.06436 -2.60064 3.62747
upperback 3.03417 -3.58495 12.6362
thorax 7.32109 -1.57111 11.3685
lowerneck -6.19502 -11.8333 -1.1497
upperneck 31.4408 -10.483 -14.5026
head 10.2499 -5.73709 -5.90903
rclavicle 1.00187e-013 -3.81667e-014
rhumerus -4.70049 8.22439 -97.0906
rradius 27.261
rwrist -61.7617
rhand -30.408 -16.0504
rfingers 7.12502
rthumb -3.71145 -45.9978
lclavicle 1.00187e-013 -3.81667e-014
lhumerus 4.84493 -63.9203 95.5642
lradius 21.9544
lwrist 18.8701
lhand 9.36761 63.8934
lfingers 7.12502
lthumb -145.474 89.4413
rfemur -11.1932 -6.45933 4.46385
rtibia 39.0745
rfoot -10.7503 -24.3508
rtoes 13.3162
lfemur -15.7017 -0.00938269 -20.7179
ltibia 10.9849
lfoot -3.63546 -27.8708
ltoes -6.96653
253
root -6.2933 18.0765 -1.29275 -178.783 51.5936 -185.681
lowerback -6.25369 -2.05947 3.19529
upperback 2.7025 -2.74015 13.0904
thorax 6.97703 -1.14449 12.2775
lowerneck -5.53949 -12.9469 -1.70478
upperneck 31.502 -11.9982 -14.2321
head 10.0937 -6.41108 -5.78398
rclavicle -3.10104e-014 2.22639e-014
rhumerus -3.27485 6.93766 -98.035
rradius 23.5987
rwrist -57.3816
rhand -29.1048 -14.6954
rfingers 7.12502
rthumb -2.45288 -44.661
lclavicle -3.10104e-014 2.22639e-014
lhumerus 3.05169 -62.0993 96.7713
lradius 22.3134
lwrist 22.8976
lhand 10.5975 67.1974
lfingers 7.12502
lthumb -144.307 86.4112
rfemur -10.1369 -6.24972 4.10666
rtibia 39.2229
rfoot -10.3897 -24.1943
rtoes 14.4722
lfemur -14.7613 -0.434045 -21.0331
ltibia 10.1131
lfoot -2.43246 -28.446
ltoes -4.70705
254
root -6.26196 18.0727 -1.33781 -179.414 50.1358 -185.926
lowerback -6.36298 -1.45901 2.77398
upperback 2.43284 -1.8115 13.4253
thorax 6.60132 -0.667582 13.0532
lowerneck -5.04176 -13.956 -2.20611
upperneck 31.4777 -13.4604 -13.7287
head 9.97287 -7.04123 -5.59024
rclavicle 5.725e-014 -1.90833e-014
rhumerus -1.5668 4.48153 -99.045
rradius 20.3157
rwrist -51.9462
rhand -25.6862 -14.4203
rfingers 7.12502
rthumb 0.84883 -44.3984
lclavicle 5.725e-014 -1.90833e-014
lhumerus 1.94865 -59.855 97.52
lradius 22.6391
lwrist 27.2235
lhand 9.36585 69.1896
lfingers 7.12502
lthumb -145.475 84.1446
rfemur -9.04094 -6.06693 3.64412
rtibia 39.3767
rfoot -9.58064 -24.0945
rtoes 13.8482
lfemur -13.8007 -1.06898 -21.455
ltibia 9.28435
lfoot -1.31697 -28.8452
ltoes -2.53541
255
root -6.23359 18.0696 -1.38549 -179.941 48.5818 -185.911
lowerback -6.34488 -0.898699 2.73097
upperback 2.13595 -0.94153 13.6792
thorax 6.09498 -0.187508 13.4786
lowerneck -4.21451 -14.8837 -2.71925
upperneck 31.2322 -14.8914 -13.0307
head 9.75067 -7.63461 -5.28302
rclavicle 7.07673e-014 -9.85972e-014
rhumerus 0.00471393 1.38501 -100.273
rradius 17.6718
rwrist -45.7619
rhand -21.5372 -14.5885
rfingers 7.12502
rthumb 4.85566 -44.5129
lclavicle 7.07673e-014 -9.85972e-014
lhumerus 0.915598 -56.9303 98.2361
lradius 22.8077
lwrist 31.126
lhand 7.49503 69.4601
lfingers 7.12502
lthumb -147.253 83.4866
rfemur -7.79642 -5.96948 3.36488
rtibia 39.4933
rfoot -8.64113 -24.0484
rtoes 12.9564
lfemur -12.8354 -1.79507 -21.7501
ltibia 8.63033
lfoot -0.652611 -29.275
ltoes -0.740291
256
root -6.20182 18.0686 -1.43559 -180.249 47.2013 -185.635
lowerback -6.49475 -0.337622 3.02789
upperback 1.91058 -0.122463 13.859
thorax 5.75926 0.27868 13.6011
lowerneck -3.3237 -15.8307 -3.35901
upperneck 31.0908 -16.3308 -12.2408
head 9.6037 -8.23227 -4.93897
rclavicle 6.79844e-014 -4.13472e-014
rhumerus 1.25562 0.119039 -101.522
rradius 16.2591
rwrist -41.2666
rhand -18.5928 -15.2207
rfingers 7.12502
rthumb 7.69822 -45.0606
lclavicle 6.79844e-014 -4.13472e-014
lhumerus 0.24793 -53.6213 98.5541
lradius 22.9274
lwrist 34.7324
lhand 5.77365 68.7999
lfingers 7.12502
lthumb -148.892 83.8192
rfemur -6.60466 -5.81767 3.33181
rtibia 39.5233
rfoot -7.38945 -24.1629
rtoes 11.2175
lfemur -12.0404 -2.34108 -21.8658
ltibia 8.337
lfoot 0.190093 -29.661
ltoes 2.13542
